<svg xmlns="http://www.w3.org/2000/svg" viewBox="0 0 24 24" width="24" height="24" fill="none">
  <!-- Camera body -->
  <path d="M3 7a2 2 0 0 1 2-2h2l1.5-2h7L17 5h2a2 2 0 0 1 2 2v10a2 2 0 0 1-2 2H5a2 2 0 0 1-2-2z" stroke="#476550" stroke-width="1.5" stroke-linejoin="round"/>
  <!-- Lens -->
  <circle cx="12" cy="12" r="4" stroke="#476550" stroke-width="1.5"/>
  <!-- Document inside lens -->
  <rect x="10" y="9.5" width="4" height="5" rx="0.5" stroke="#476550" stroke-width="0.8" fill="none"/>
  <line x1="11" y1="11" x2="13" y2="11" stroke="#476550" stroke-width="0.6" opacity="0.6"/>
  <line x1="11" y1="12.5" x2="13" y2="12.5" stroke="#476550" stroke-width="0.6" opacity="0.6"/>
  <!-- Flash indicator -->
  <path d="M18 7.5l-.5 1h1l-.5 1" stroke="#7bae7f" stroke-width="0.8" stroke-linecap="round" stroke-linejoin="round"/>
</svg>
