<svg xmlns="http://www.w3.org/2000/svg" viewBox="0 0 24 24" width="24" height="24" fill="none">
  <!-- Document -->
  <path d="M14 3H6a2 2 0 0 0-2 2v14a2 2 0 0 0 2 2h12a2 2 0 0 0 2-2V7z" stroke="#476550" stroke-width="1.5" stroke-linecap="round" stroke-linejoin="round"/>
  <path d="M14 3v4a1 1 0 0 0 1 1h4" stroke="#476550" stroke-width="1.5" stroke-linecap="round" stroke-linejoin="round"/>
  <!-- Table lines -->
  <line x1="7" y1="11" x2="17" y2="11" stroke="#476550" stroke-width="1" opacity="0.5"/>
  <line x1="7" y1="14" x2="17" y2="14" stroke="#476550" stroke-width="1" opacity="0.5"/>
  <line x1="7" y1="17" x2="13" y2="17" stroke="#476550" stroke-width="1" opacity="0.5"/>
  <!-- Download arrow -->
  <circle cx="18" cy="18" r="4" fill="#476550"/>
  <path d="M18 15.5v4M16.2 18l1.8 1.8 1.8-1.8" stroke="#fff" stroke-width="1.2" stroke-linecap="round" stroke-linejoin="round"/>
</svg>
