<svg xmlns="http://www.w3.org/2000/svg" viewBox="0 0 24 24" width="24" height="24" fill="none">
  <!-- Speech bubble -->
  <path d="M4 4h16a1 1 0 0 1 1 1v11a1 1 0 0 1-1 1H8l-4 3v-3a1 1 0 0 1-1-1V5a1 1 0 0 1 1-1z" stroke="#476550" stroke-width="1.5" stroke-linejoin="round"/>
  <!-- Positive (green check) -->
  <polyline points="7,8 8.5,9.5 11,7" stroke="#4a9e5c" stroke-width="1.5" stroke-linecap="round" stroke-linejoin="round"/>
  <!-- Improvement (orange arrow up) -->
  <path d="M7 12h4" stroke="#d4913a" stroke-width="1.5" stroke-linecap="round"/>
  <path d="M13 13l1.5-2 1.5 2" stroke="#d4913a" stroke-width="1.3" stroke-linecap="round" stroke-linejoin="round"/>
  <!-- Encouragement (green star) -->
  <path d="M9 15.5l.4 1 1 .1-.7.7.2 1-.9-.5-.9.5.2-1-.7-.7 1-.1z" fill="#4a9e5c" opacity="0.8"/>
</svg>
